<?xml version="1.0" standalone="no"?>
<!DOCTYPE svg PUBLIC "-//W3C//DTD SVG 20010904//EN"
 "http://www.w3.org/TR/2001/REC-SVG-20010904/DTD/svg10.dtd">
<svg version="1.0" xmlns="http://www.w3.org/2000/svg"
 width="807.000000pt" height="807.000000pt" viewBox="0 0 807.000000 807.000000"
 preserveAspectRatio="xMidYMid meet">
<metadata>
Created by potrace 1.11, written by Peter Selinger 2001-2013
</metadata>
<g transform="translate(0.000000,807.000000) scale(0.100000,-0.100000)"
fill="#000000" stroke="none">
<path d="M3749 8066 c-2 -2 -39 -6 -81 -10 -43 -4 -83 -8 -90 -11 -7 -2 -38
-6 -68 -10 -30 -3 -100 -15 -155 -26 -401 -83 -745 -224 -1055 -431 -58 -39
-107 -73 -110 -77 -3 -3 -39 -33 -80 -66 -287 -230 -539 -572 -679 -922 -40
-100 -96 -279 -106 -335 -3 -15 -11 -56 -19 -91 l-13 -64 525 0 524 -1 15 37
c152 368 410 644 779 829 91 46 201 92 220 92 9 0 12 -308 12 -1382 0 -761 -2
-1387 -4 -1393 -3 -6 -42 -10 -95 -10 l-90 0 -55 105 c-31 58 -76 143 -101
190 -25 47 -63 118 -84 158 -22 39 -56 105 -78 145 -21 39 -60 113 -86 162
-27 50 -94 176 -150 280 -56 105 -131 246 -168 315 -172 326 -151 295 -194
294 -21 0 -67 -4 -103 -7 -145 -15 -166 -17 -195 -21 -16 -3 -57 -8 -90 -11
-33 -4 -67 -8 -75 -10 -8 -2 -35 -7 -60 -10 -25 -3 -56 -8 -70 -10 -14 -3 -41
-7 -60 -10 -81 -13 -99 -16 -169 -31 -41 -8 -77 -16 -80 -18 -3 -2 -22 -7 -41
-10 -19 -3 -58 -12 -85 -20 l-50 -15 0 -365 c0 -200 3 -368 7 -372 5 -4 171
-7 371 -7 l364 0 56 -96 c339 -588 544 -943 562 -976 13 -22 105 -181 204
-354 100 -172 180 -315 178 -317 -3 -3 -905 -16 -1724 -24 -112 -2 -143 -5
-143 -15 0 -8 22 -60 49 -117 28 -57 93 -195 145 -308 l95 -205 1036 -3 1035
-2 0 -415 0 -415 -176 0 c-97 0 -174 -4 -172 -8 3 -7 157 -276 179 -312 12
-21 116 -202 201 -350 11 -19 88 -152 171 -295 82 -143 158 -273 167 -290 51
-89 135 -234 152 -265 42 -73 90 -150 94 -150 5 0 43 61 83 134 30 55 161 283
181 316 6 8 17 29 26 45 9 17 79 137 155 268 77 131 139 243 139 248 0 5 4 9
8 9 4 0 13 12 19 27 7 16 20 42 30 58 22 37 173 297 201 345 10 19 43 75 71
123 28 49 51 90 51 93 0 2 -79 4 -175 4 l-175 0 0 415 0 415 1033 0 1034 0 11
23 c28 55 291 622 289 623 -2 2 -192 5 -1466 20 -223 2 -406 6 -408 8 -2 2 4
17 14 34 10 17 49 84 86 149 37 65 79 138 94 163 14 25 34 59 43 75 44 77 356
618 378 655 12 19 40 69 64 110 67 118 78 138 163 284 44 76 93 161 109 189
50 92 12 85 416 84 198 0 363 3 367 7 5 4 8 172 8 372 l0 364 -30 10 c-36 11
-140 37 -175 44 -14 2 -59 11 -100 20 -41 8 -93 17 -115 21 -22 3 -67 10 -100
15 -33 5 -78 12 -100 15 -22 3 -53 7 -70 10 -16 2 -55 7 -85 10 -30 4 -68 8
-85 10 -65 8 -182 19 -218 19 -37 1 -38 0 -80 -79 -117 -220 -163 -306 -200
-375 -21 -41 -52 -97 -67 -125 -15 -27 -53 -99 -85 -160 -32 -60 -70 -132 -85
-160 -15 -27 -53 -99 -85 -160 -31 -60 -65 -123 -75 -140 -9 -16 -46 -84 -80
-150 -92 -176 -142 -268 -154 -285 -9 -12 -31 -15 -101 -15 l-90 0 -1 1390
c-1 765 0 1393 2 1397 4 7 141 -50 245 -103 95 -47 265 -160 325 -214 207
-188 338 -366 420 -572 l29 -71 526 0 526 1 -8 43 c-5 24 -18 81 -29 126 -12
46 -23 94 -26 108 -13 60 -111 305 -166 410 -207 401 -532 734 -953 977 -65
37 -174 92 -285 141 -162 72 -496 169 -675 196 -22 4 -53 8 -70 11 -58 9 -110
17 -145 21 -43 6 -665 16 -671 10z"/>
</g>
</svg>
